# xmcd CD database file
#
# Track frame offsets:
#	150
#	25125
#	48813
#	73801
#	95663
#	110211
#	128467
#	150849
#	182288
#	210254
#	250366
#
# Disc length: 3371 seconds
#
# Revision: 0
# Processed by: cddbd v1.5PL3 Copyright (c) Steve Scherf et al.
# Submitted via: CDex 1.51
#
DISCID=860d290b
DTITLE=Herbie Hancock - Future2Future
DYEAR=2001
DGENRE=Jazz
TTITLE0=Kebero
TTITLE1=Wisdom
TTITLE2=The Essence
TTITLE3=This is Rob Swift
TTITLE4=Black Gravity
TTITLE5=Tony Williams
TTITLE6=Be Still
TTITLE7=Ionosphere
TTITLE8=Kebero (part 2)
TTITLE9=Alphabeta
TTITLE10=Virtual Hornets
EXTD=YEAR: 2001
EXTT0=
EXTT1=
EXTT2=
EXTT3=
EXTT4=
EXTT5=
EXTT6=
EXTT7=
EXTT8=
EXTT9=
EXTT10=
PLAYORDER=
